<?xml version="1.0" standalone="no"?>
<!DOCTYPE svg PUBLIC "-//W3C//DTD SVG 20010904//EN"
 "http://www.w3.org/TR/2001/REC-SVG-20010904/DTD/svg10.dtd">
<svg version="1.0" xmlns="http://www.w3.org/2000/svg"
 width="700.000000pt" height="700.000000pt" viewBox="0 0 700.000000 700.000000"
 preserveAspectRatio="xMidYMid meet">
<metadata>
Created by potrace 1.14, written by Peter Selinger 2001-2017
</metadata>
<g transform="translate(0.000000,700.000000) scale(0.100000,-0.100000)"
fill="#000000" stroke="none">
<path d="M1985 6286 c-74 -20 -96 -30 -150 -72 -59 -44 -77 -66 -128 -147 -42
-68 -93 -218 -103 -299 -4 -29 -8 -56 -10 -59 -22 -37 -21 -557 1 -664 2 -11
7 -45 10 -76 8 -76 39 -258 60 -344 9 -38 19 -81 21 -95 21 -107 125 -416 201
-595 93 -219 231 -489 314 -613 16 -24 29 -45 29 -48 0 -2 21 -36 47 -74 l46
-70 -34 -43 c-29 -37 -55 -66 -141 -157 -13 -14 -53 -50 -88 -80 -366 -310
-522 -658 -476 -1065 58 -522 454 -952 976 -1061 92 -20 343 -26 458 -11 119
15 262 47 365 83 56 20 109 36 117 36 8 0 56 -14 105 -32 92 -32 218 -64 290
-74 22 -3 69 -10 105 -15 63 -9 344 -8 385 2 11 2 38 8 60 12 22 5 46 9 52 11
121 24 341 131 454 220 132 105 261 263 338 412 47 94 104 257 115 334 4 21 8
53 11 70 18 110 8 294 -20 403 -69 260 -200 454 -455 675 -72 63 -147 139
-206 210 -62 74 -62 60 3 162 50 78 123 200 176 293 93 166 239 498 309 705
60 179 132 464 152 605 4 23 8 50 10 60 2 11 7 47 11 80 4 33 9 71 11 85 17
129 23 435 10 575 -29 341 -157 575 -353 648 -81 30 -240 30 -333 0 -369 -118
-737 -491 -990 -1004 -90 -182 -205 -486 -226 -595 -3 -19 -10 -32 -14 -27 -4
4 -20 49 -34 98 -67 227 -209 559 -304 710 -40 63 -136 208 -149 225 -91 115
-123 153 -172 205 -186 196 -381 329 -565 387 -80 25 -225 32 -291 14z m270
-584 c82 -55 240 -209 311 -302 126 -165 233 -356 313 -557 34 -87 103 -293
116 -348 2 -11 13 -58 24 -105 11 -47 22 -101 26 -120 3 -19 10 -57 15 -85 21
-113 34 -233 46 -417 l6 -96 -34 -7 c-73 -16 -202 -66 -285 -109 -47 -26 -90
-43 -95 -38 -37 37 -243 420 -312 582 -71 165 -179 490 -200 600 -2 14 -12 59
-21 100 -43 201 -59 363 -60 595 0 188 7 279 26 333 14 41 28 38 124 -26z
m2624 -13 c22 -103 21 -464 -4 -654 -3 -29 -17 -115 -20 -125 0 -3 -4 -27 -9
-55 -23 -150 -110 -449 -191 -655 -72 -184 -304 -633 -354 -683 -4 -4 -50 15
-102 42 -89 46 -202 90 -277 106 l-34 7 7 107 c3 58 8 120 10 136 2 17 6 57 9
91 4 33 8 71 11 85 29 176 39 226 56 299 11 47 23 95 25 108 2 12 20 73 40
135 143 450 372 813 654 1039 52 41 140 90 155 85 5 -2 16 -32 24 -68z m-1205
-2513 c89 -10 203 -39 258 -67 108 -55 174 -116 350 -326 132 -157 219 -248
367 -382 103 -94 179 -194 212 -280 29 -77 34 -111 33 -226 -4 -285 -195 -538
-479 -635 -63 -22 -146 -34 -230 -34 -61 1 -194 12 -204 18 -3 2 -26 7 -49 11
-68 10 -212 61 -302 106 l-83 42 44 23 c58 29 134 111 164 177 40 84 32 120
-35 162 -140 88 -430 61 -486 -46 -20 -40 -18 -58 16 -126 35 -69 100 -137
161 -169 l41 -21 -79 -41 c-84 -43 -231 -96 -297 -106 -21 -4 -41 -8 -45 -10
-14 -9 -152 -19 -238 -18 -191 2 -363 76 -498 217 -185 193 -245 482 -145 701
39 87 104 168 207 261 121 109 209 196 278 278 33 39 62 72 65 75 3 3 29 34
59 70 195 239 335 324 566 346 39 4 71 7 72 8 6 5 212 -2 277 -8z"/>
<path d="M3024 2571 c-106 -65 -106 -317 0 -382 63 -38 128 -12 167 68 33 67
33 177 0 246 -25 52 -70 87 -111 87 -14 0 -39 -9 -56 -19z"/>
<path d="M3864 2571 c-107 -65 -106 -315 0 -381 41 -25 72 -25 112 -1 77 47
106 212 55 314 -25 52 -70 87 -111 87 -14 0 -39 -9 -56 -19z"/>
</g>
</svg>
