<?xml version="1.0" standalone="no"?>
<!DOCTYPE svg PUBLIC "-//W3C//DTD SVG 20010904//EN"
 "http://www.w3.org/TR/2001/REC-SVG-20010904/DTD/svg10.dtd">
<svg version="1.0" xmlns="http://www.w3.org/2000/svg"
 width="700.000000pt" height="700.000000pt" viewBox="0 0 700.000000 700.000000"
 preserveAspectRatio="xMidYMid meet">
<metadata>
Created by potrace 1.14, written by Peter Selinger 2001-2017
</metadata>
<g transform="translate(0.000000,700.000000) scale(0.100000,-0.100000)"
fill="#000000" stroke="none">
<path d="M665 6579 c-142 -22 -261 -75 -380 -169 -120 -95 -198 -213 -257
-386 l-23 -69 -2 -2420 c-1 -1515 2 -2442 8 -2478 49 -297 276 -540 580 -624
61 -17 214 -18 2909 -18 2695 0 2848 1 2909 18 191 52 353 167 458 323 46 69
72 123 104 219 l24 70 2 2420 c3 2638 6 2493 -54 2635 -95 230 -285 396 -533
466 -62 17 -185 18 -2880 19 -1548 1 -2837 -2 -2865 -6z m5720 -248 c143 -49
260 -148 324 -275 56 -112 60 -154 61 -643 l0 -443 -47 0 c-68 0 -6277 0
-6396 0 l-97 0 1 448 c1 493 4 526 61 641 40 81 140 185 220 228 50 27 142 57
203 65 11 2 1276 3 2810 3 l2790 -1 70 -23z m385 -3406 l-1 -1812 -22 -74
c-32 -101 -69 -162 -147 -239 -72 -72 -159 -121 -257 -143 -85 -20 -5635 -18
-5703 2 -95 28 -174 75 -245 146 -82 82 -118 144 -145 250 -19 76 -20 120 -20
1879 l0 1802 3270 0 3270 0 0 -1811z"/>
<path d="M735 6003 c-268 -97 -334 -432 -122 -618 137 -120 342 -119 477 2 62
56 95 110 113 188 40 171 -48 345 -210 417 -66 29 -192 34 -258 11z m199 -242
c55 -48 60 -140 11 -191 -27 -28 -68 -48 -92 -44 -7 1 -22 2 -34 3 -12 0 -36
16 -54 34 -75 75 -50 187 49 221 43 15 85 7 120 -23z"/>
<path d="M1875 6007 c-318 -105 -349 -535 -49 -682 51 -25 71 -29 149 -29 77
-1 98 3 147 26 79 37 142 98 181 177 29 59 32 74 32 156 0 82 -3 97 -32 156
-62 125 -175 200 -313 206 -44 2 -92 -3 -115 -10z m162 -237 c46 -28 66 -64
65 -116 -2 -147 -206 -180 -252 -40 -16 49 -6 97 28 131 49 49 105 58 159 25z"/>
<path d="M2987 5996 c-258 -87 -335 -401 -148 -597 138 -145 374 -147 516 -4
134 134 143 349 19 493 -97 114 -246 156 -387 108z m173 -226 c63 -33 89 -127
51 -187 -47 -75 -149 -84 -208 -19 -18 20 -34 45 -34 56 -1 11 -2 26 -3 33 -3
18 21 75 39 94 37 36 108 47 155 23z"/>
<path d="M3654 4050 c-47 -19 -59 -48 -99 -235 -2 -11 -25 -119 -50 -240 -26
-121 -48 -229 -51 -240 -2 -11 -8 -40 -13 -65 -11 -49 -65 -305 -135 -640 -25
-118 -75 -354 -111 -525 -81 -378 -82 -390 -55 -433 23 -37 54 -52 107 -52 54
0 95 49 111 131 22 112 26 128 57 279 15 69 29 134 31 145 2 11 7 34 10 50 2
17 9 46 14 65 7 29 29 131 54 256 2 10 14 64 26 119 11 55 34 163 50 240 16
77 43 205 60 285 17 80 40 188 51 241 25 123 22 110 59 279 45 209 47 224 43
251 -10 75 -88 118 -159 89z"/>
<path d="M2715 3589 c-20 -12 -96 -73 -150 -120 -32 -29 -397 -340 -430 -367
-168 -139 -225 -194 -231 -227 -14 -75 -14 -75 216 -270 84 -71 158 -135 164
-140 6 -6 70 -60 141 -120 72 -60 165 -140 209 -177 75 -65 90 -72 145 -70 63
3 109 74 91 142 -9 32 -31 56 -132 142 -66 57 -126 108 -132 113 -6 6 -85 73
-176 150 -91 77 -176 150 -190 162 -14 13 -29 23 -33 23 -25 0 12 39 138 146
414 353 501 429 513 445 31 44 16 129 -28 156 -29 19 -92 25 -115 12z"/>
<path d="M4195 3590 c-11 -4 -31 -20 -44 -34 -29 -31 -33 -100 -9 -135 9 -12
67 -65 129 -118 63 -52 125 -105 139 -117 14 -12 86 -73 160 -136 74 -64 149
-128 166 -143 17 -15 39 -34 50 -42 18 -14 17 -16 -22 -52 -22 -21 -65 -59
-95 -84 -30 -25 -92 -79 -139 -119 -47 -40 -96 -82 -110 -94 -14 -11 -82 -70
-152 -130 -106 -90 -130 -115 -138 -147 -19 -70 25 -134 98 -143 51 -6 41 -13
442 330 66 56 192 164 240 204 29 25 58 50 64 55 6 6 29 25 51 44 55 47 75 80
75 123 0 41 -30 77 -144 173 -115 97 -131 110 -161 136 -43 38 -369 315 -435
370 -83 70 -114 81 -165 59z"/>
</g>
</svg>
